# AST/ASF file generated using VICON BodyLanguage
# -----------------------------------------------
:version 1.10
:name VICON
:units
  mass 1.0
  length 0.45
  angle deg
:documentation
   .ast/.asf automatically generated from VICON data using
   VICON BodyBuilder and BodyLanguage model FoxedUp or BRILLIANT.MOD
:root
   order TX TY TZ RX RY RZ
   axis XYZ
   position 0 0 0  
   orientation 0 0 0 
:bonedata
  begin
     id 1 
     name lhipjoint
     direction 0.611804 -0.747784 0.257906 
     length 2.29243 
     axis 0 0 0  XYZ
  end
  begin
     id 2 
     name lfemur
     direction 0.34202 -0.939693 0  
     length 7.31159  
     axis 0 0 20  XYZ
    dof rx ry rz
    limits (-160.0 20.0)
           (-70.0 70.0)
           (-60.0 70.0)
  end
  begin
     id 3 
     name ltibia
     direction 0.34202 -0.939693 0   
     length 7.33391   
     axis 0 0 20   XYZ
    dof rx
    limits (-10.0 170.0)
  end
  begin
     id 4 
     name lfoot
     direction 0.122263 -0.335914 0.933924   
     length 1.76083   
     axis -90 7.62852e-016 20   XYZ
    dof rx rz
    limits (-45.0 90.0)
           (-70.0 20.0)
  end
  begin
     id 5 
     name ltoes
     direction 1.53533e-011 -4.2177e-011 1   
     length 0.879206   
     axis -90 7.62852e-016 20   XYZ
    dof rx
    limits (-90.0 20.0)
  end
  begin
     id 6 
     name rhipjoint
     direction -0.646469 -0.721248 0.248754   
     length 2.37677  
     axis 0 0 0  XYZ 
  end
  begin
     id 7 
     name rfemur
     direction -0.34202 -0.939693 0   
     length 7.18623   
     axis 0 0 -20   XYZ
    dof rx ry rz
    limits (-160.0 20.0)
           (-70.0 70.0)
           (-70.0 60.0)
  end
  begin
     id 8 
     name rtibia
     direction -0.34202 -0.939693 0   
     length 7.36567   
     axis 0 0 -20   XYZ
    dof rx
    limits (-10.0 170.0)
 end
 begin
     id 9 
     name rfoot
     direction -0.126681 -0.348054 0.928876   
     length 1.71902  
     axis -90 -7.62852e-016 -20   XYZ
    dof rx rz
    limits (-45.0 90.0)
           (-20.0 70.0)
  end
  begin
     id 10 
     name rtoes
     direction -1.53551e-011 -4.21898e-011 1   
     length 0.857792   
     axis -90 -7.62852e-016 -20   XYZ
    dof rx
    limits (-90.0 20.0)
  end
  begin
     id 11 
     name lowerback
     direction 0.0106509 0.999778 0.0181844   
     length 2.07668   
     axis 0 0 0   XYZ
    dof rx ry rz
    limits (-20.0 45.0)
           (-30.0 30.0)
           (-30.0 30.0)
  end
  begin
     id 12 
     name upperback
     direction -0.00456018 0.999989 -0.000590935   
     length 2.08011   
     axis 0 0 0   XYZ
    dof rx ry rz
    limits (-20.0 45.0)
           (-30.0 30.0)
           (-30.0 30.0)
  end
  begin
     id 13 
     name thorax
     direction -0.00910382 0.999916 -0.00923765   
     length 2.07397   
     axis 0 0 0   XYZ
    dof rx ry rz
    limits (-20.0 45.0)
           (-30.0 30.0)
           (-30.0 30.0)
  end
  begin
     id 14 
     name lowerneck
     direction 0.00171967 0.99778 0.0665733   
     length 1.67556   
     axis 0 0 0   XYZ
    dof rx ry rz
    limits (-20.0 45.0)
           (-30.0 30.0)
           (-30.0 30.0)
  end
  begin
     id 15 
     name upperneck
     direction -0.0143166 0.991302 -0.130828   
     length 1.68462   
     axis 0 0 0   XYZ
    dof rx ry rz
    limits (-20.0 45.0)
           (-30.0 30.0)
           (-30.0 30.0)
  end
  begin
     id 16
     name head
     direction -0.00606378 0.998665 -0.0512995  
     length 1.69269  
     axis 0 0 0   XYZ
    dof rx ry rz
    limits (-20.0 45.0)
           (-30.0 30.0)
           (-30.0 30.0)
  end
  begin
     id 17 
     name lclavicle
     direction 0.9638 0.179341 0.197297  
     length 4.12888  
     axis 0 0 0   XYZ
    dof ry rz
    limits (-20.0 10.0)
           (0.0 20.0)
  end
  begin
     id 18 
     name lhumerus
     direction 1 -4.48972e-011 -2.47351e-027   
     length 5.01834   
     axis -180 -30 -90   XYZ
    dof rx ry rz
    limits (-60.0 90.0)
           (-90.0 90.0)
           (-90.0 90.0)
  end
  begin
     id 19
     name lradius
     direction 1 -4.48965e-011 1.51591e-026   
     length 3.4869   
     axis -180 -30 -90   XYZ
    dof rx
    limits (-10.0 170.0)
  end
  begin
     id 20
     name lwrist
     direction 1 -4.48957e-011 2.70032e-026   
     length 1.74345   
     axis -1.81515e-014 90 90   XYZ
    dof ry
    limits (-180.0 0.0)
 end
  begin
     id 21 
     name lhand
     direction 1 -4.48951e-011 5.40064e-026   
     length 0.76799   
     axis -3.44607e-014 90 90   XYZ
    dof rx rz
    limits (-90.0 90.0)
           (-45.0 45.0)
  end
  begin
     id 22 
     name lfingers
     direction 1 -4.48971e-011 1.08013e-025   
     length 0.619174   
     axis -6.89214e-014 90 90   XYZ
    dof rx
    limits (0.0 90.0)
  end
  begin
     id 23
     name lthumb
     direction 0.707107 -6.34931e-011 0.707107   
     length 0.889013   
     axis -90 45 2.85299e-015   XYZ
    dof rx rz
    limits (-45.0 45.0)
           (-45.0 45.0)
  end
  begin
     id 24 
     name rclavicle
     direction -0.961409 0.252588 0.109054   
     length 4.04305  
     axis 0 0 0   XYZ 
    dof ry rz
    limits (-10.0 20.0)
           (-20.0 0.0)
  end
  begin
     id 25 
     name rhumerus
     direction -1 -4.4897e-011 1.33872e-017  
     length 4.70164   
     axis -180 30 90   XYZ
    dof rx ry rz
    limits (-90.0 60.0)
           (-90.0 90.0)
           (-90.0 90.0)
  end
  begin
     id 26 
     name rradius
     direction -1 -4.48954e-011 1.83844e-026   
     length 3.49911   
     axis -180 30 90   XYZ
    dof rx
    limits (-10.0 170.0)
  end
  begin
     id 27 
     name rwrist
     direction -1 -4.49008e-011 2.70032e-026   
     length 1.74955   
     axis -1.81515e-014 -90 -90   XYZ
    dof ry
    limits (-180.0 0.0)
  end
  begin
     id 28
     name rhand
     direction -1 -4.48916e-011 5.40064e-026   
     length 0.739335   
     axis -3.44607e-014 -90 -90   XYZ
    dof rx rz
    limits (-90.0 90.0)
           (-45.0 45.0)
  end
  begin
     id 29
     name rfingers
     direction -1 -4.48987e-011 1.08013e-025   
     length 0.596071   
     axis -6.89214e-014 -90 -90   XYZ
    dof rx
    limits (0.0 90.0)
  end
  begin
     id 30
     name rthumb
     direction -0.707107 -6.34935e-011 0.707107   
     length 0.855843   
     axis -90 -45 -2.85299e-015   XYZ
    dof rx rz
    limits (-45.0 45.0)
           (-45.0 45.0)
  end
:hierarchy
  begin
    root lhipjoint rhipjoint lowerback
    lhipjoint lfemur
    lfemur ltibia
    ltibia lfoot
    lfoot ltoes
    rhipjoint rfemur
    rfemur rtibia
    rtibia rfoot
    rfoot rtoes
    lowerback upperback
    upperback thorax
    thorax lowerneck lclavicle rclavicle
    lowerneck upperneck
    upperneck head
    lclavicle lhumerus
    lhumerus lradius
    lradius lwrist
    lwrist lhand lthumb
    lhand lfingers
    rclavicle rhumerus
    rhumerus rradius
    rradius rwrist
    rwrist rhand rthumb
    rhand rfingers
  end

#!OML:ASF I:\salsa\salsa 7_09\Patient 1\Session 1\dancermale.ASF
:FULLY-SPECIFIED
:DEGREES
659
root -1.69012 16.6902 -1.23747 -534.717 234.189 -194.349
lowerback 9.43089 -3.12986 -5.81903
upperback 3.49457 -4.71928 0.852421
thorax -1.08892 -2.43623 4.60866
lowerneck -11.1298 7.3594 1.93428
upperneck 25.4588 10.8899 -4.85899
head 10.3494 4.48363 -0.726329
rclavicle -6.81831e-014 1.74931e-014
rhumerus -38.7661 5.688 -79.1972
rradius 86.1914
rwrist -0.0354198
rhand -16.7711 -28.3372
rfingers 7.12502
rthumb 9.45623 -58.1051
lclavicle -6.81831e-014 1.74931e-014
lhumerus 8.46494 2.47363 71.9889
lradius 38.0536
lwrist 14.5115
lhand -9.33497 66.7213
lfingers 7.12502
lthumb 16.624 263.971
rfemur -15.5301 2.86601 22.2478
rtibia 61.9793
rfoot -4.03859 4.2843
rtoes -15.6793
lfemur -19.523 7.82723 -4.88539
ltibia 37.8403
lfoot -15.5568 -4.73151
ltoes 3.75455
660
root -1.77754 16.7017 -1.39264 -534.729 233.563 -194.153
lowerback 9.15666 -2.94558 -5.8964
upperback 3.42143 -4.46314 0.844611
thorax -1.03962 -2.30697 4.6067
lowerneck -11.2336 6.94784 1.49966
upperneck 25.4351 10.3015 -4.45154
head 10.2859 4.22362 -0.586532
rclavicle -5.37713e-014 6.36111e-015
rhumerus -38.4176 4.68611 -76.422
rradius 86.6707
rwrist 0.0466238
rhand -16.0652 -28.0056
rfingers 7.12502
rthumb 10.1372 -57.7413
lclavicle -5.37713e-014 6.36111e-015
lhumerus 5.65821 0.565784 72.0641
lradius 40.4551
lwrist 16.9996
lhand -9.37742 67.0536
lfingers 7.12502
lthumb 16.5831 263.635
rfemur -14.5923 7.86608 22.4412
rtibia 60.3993
rfoot -5.81841 5.5036
rtoes -19.6428
lfemur -19.3224 7.43366 -4.26235
ltibia 36.6517
lfoot -15.2306 -5.01639
ltoes 4.03487
661
root -1.86963 16.7159 -1.55359 -534.381 232.64 -194.15
lowerback 8.65828 -2.8957 -5.79275
upperback 3.31111 -4.35477 0.887523
thorax -0.89799 -2.2521 4.5554
lowerneck -11.5462 6.52359 0.710192
upperneck 25.5326 9.69681 -3.70589
head 10.2732 3.95367 -0.263888
rclavicle -1.48095e-014 3.97569e-014
rhumerus -37.8841 3.76848 -73.6008
rradius 87.1286
rwrist -0.170868
rhand -16.2268 -28.2358
rfingers 7.12502
rthumb 9.98136 -57.9791
lclavicle -1.48095e-014 3.97569e-014
lhumerus 2.77076 -1.11687 72.3107
lradius 42.9698
lwrist 19.3265
lhand -9.44479 67.1185
lfingers 7.12502
lthumb 16.5182 263.565
rfemur -13.5439 12.8027 23.0788
rtibia 58.4968
rfoot -8.36043 6.89212
rtoes -26.7924
lfemur -19.4072 6.84396 -3.49116
ltibia 35.3236
lfoot -14.607 -5.30787
ltoes 3.849
662
root -1.96329 16.7314 -1.71406 -534.207 231.206 -193.968
lowerback 8.16719 -3.01039 -5.69008
upperback 3.25292 -4.46614 0.95302
thorax -0.67712 -2.31161 4.54252
lowerneck -12.0421 6.05471 -0.102865
upperneck 25.7115 9.09423 -3.13349
head 10.3457 3.65635 0.0114408
rclavicle 2.28602e-015 -9.54166e-015
rhumerus -37.1731 2.83117 -70.6644
rradius 87.6453
rwrist -0.521826
rhand -16.7004 -28.6
rfingers 7.12502
rthumb 9.52445 -58.3647
lclavicle 2.28602e-015 -9.54166e-015
lhumerus -0.148992 -2.58356 72.7934
lradius 45.6002
lwrist 21.5165
lhand -9.54659 66.9222
lfingers 7.12502
lthumb 16.4202 263.753
rfemur -12.0142 16.8136 23.9256
rtibia 55.8039
rfoot -11.8331 7.89023
rtoes -36.6212
lfemur -19.7163 5.89136 -2.87255
ltibia 34.0186
lfoot -13.7477 -5.68469
ltoes 3.4676
663
root -2.06101 16.7489 -1.87063 -534.543 229.296 -193.445
lowerback 7.86794 -3.1546 -5.64684
upperback 3.25139 -4.63483 0.898874
thorax -0.501629 -2.39941 4.4519
lowerneck -12.3851 5.45456 -0.602818
upperneck 25.7838 8.30368 -2.8307
head 10.3858 3.27917 0.112173
rclavicle 1.42131e-014 -1.90833e-014
rhumerus -36.6076 1.57843 -67.628
rradius 88.2203
rwrist -1.16448
rhand -17.7213 -29.2389
rfingers 7.12502
rthumb 8.53929 -59.0462
lclavicle 1.42131e-014 -1.90833e-014
lhumerus -3.10897 -4.34468 73.4337
lradius 48.527
lwrist 24.2403
lhand -9.86277 66.7688
lfingers 7.12502
lthumb 16.1158 263.881
rfemur -9.61347 20.1217 25.0286
rtibia 52.1137
rfoot -16.3013 6.76529
rtoes -48.6488
lfemur -19.9756 4.75067 -2.526
ltibia 32.7727
lfoot -12.7611 -6.38245
ltoes 3.20706
664
root -2.15695 16.7648 -2.02443 -535.357 226.971 -192.294
lowerback 7.57478 -3.35179 -5.83483
upperback 3.23443 -4.89209 0.635949
thorax -0.33413 -2.53046 4.27845
lowerneck -12.4847 4.83191 -0.950974
upperneck 25.6545 7.42048 -2.47623
head 10.3146 2.89289 0.18518
rclavicle 6.85807e-015 1.43125e-014
rhumerus -36.163 0.102808 -64.5574
rradius 88.7375
rwrist -1.8569
rhand -18.9407 -29.5173
rfingers 7.12502
rthumb 7.36235 -59.3692
lclavicle 6.85807e-015 1.43125e-014
lhumerus -6.17238 -6.34593 74.1386
lradius 51.7776
lwrist 27.5256
lhand -10.421 66.6784
lfingers 7.12502
lthumb 15.5782 263.929
rfemur -6.95392 22.1879 25.8431
rtibia 48.4809
rfoot -19.6341 3.29105
rtoes -55.4596
lfemur -20.2639 3.46943 -2.758
ltibia 31.3337
lfoot -11.5259 -7.37829
ltoes 3.21867
665
root -2.23933 16.7876 -2.17613 -535.897 224.494 -191.244
lowerback 7.21337 -3.58306 -5.73559
upperback 3.14727 -5.17132 0.280365
thorax -0.235813 -2.66397 3.84773
lowerneck -12.2099 4.11705 -1.2801
upperneck 25.3063 6.37361 -2.0862
head 10.097 2.44797 0.237046
rclavicle -2.18663e-015 -1.59028e-014
rhumerus -35.7748 -1.71372 -61.5184
rradius 89.1717
rwrist -2.32929
rhand -20.1117 -29.2895
rfingers 7.12502
rthumb 6.23197 -59.1778
lclavicle -2.18663e-015 -1.59028e-014
lhumerus -9.27258 -8.16314 74.8416
lradius 55.1369
lwrist 30.6275
lhand -11.0612 66.4392
lfingers 7.12502
lthumb 14.9616 264.121
rfemur -4.37671 23.2718 26.6935
rtibia 44.8796
rfoot -21.1677 -1.85331
rtoes -59.2847
lfemur -20.724 2.38965 -3.03154
ltibia 29.7383
lfoot -10.0256 -8.56696
ltoes 3.43113
